<svg width="55" height="37" viewBox="0 0 55 37" fill="none" xmlns="http://www.w3.org/2000/svg">
    <path d="M0.825195 5.31675C0.825195 3.48724 1.85598 2.50074 3.91755 2.35725L11.8617 2.41106C12.3949 2.41106 12.7503 2.6801 12.928 3.2182C13.7455 5.90865 14.6608 8.23142 15.6738 10.1865C16.5848 11.9446 17.7472 13.942 19.1612 16.1787C19.482 16.6862 19.7387 17.4238 20.339 17.4238C20.4919 17.4238 20.6246 17.3764 20.7372 17.2817C20.8908 17.1524 20.952 16.9491 21.0044 16.7553C21.0582 16.5561 21.086 16.3508 21.0872 16.1445L21.1388 7.14627C21.1388 6.50056 20.9877 6.07008 20.6856 5.85485C20.3834 5.63961 19.8236 5.47818 19.0061 5.37056C18.3663 5.26294 18.0464 4.86834 18.0464 4.18676C18.0464 3.96717 18.1301 3.75716 18.2103 3.55272C19.0432 1.42845 21.139 0.366309 24.4977 0.366309L27.4834 0.3125C28.8341 0.3125 29.9538 0.653291 30.8424 1.33487C31.731 2.01646 32.1753 3.09264 32.1753 4.56342V16.0225C32.1753 16.497 32.3939 17.0472 32.8684 17.0472C33.4015 17.0472 33.8636 16.7243 34.2546 16.0786C37.9757 10.8209 40.071 7.22029 40.5404 5.27684C40.5858 5.08884 40.62 4.89816 40.7059 4.72485C40.9547 4.18676 41.3635 3.72041 41.9322 3.32581C42.308 3.06503 42.6528 2.85908 42.9666 2.70797C43.2643 2.56457 43.5744 2.41106 43.9049 2.41106H52.1689L52.7021 2.46487C53.413 2.46487 53.9639 2.80566 54.3549 3.48724C54.4971 3.70248 54.5948 3.93565 54.6482 4.18676C54.7015 4.43787 54.737 4.68898 54.7548 4.94009C54.7726 5.1912 54.7814 5.33469 54.7814 5.37056C54.7814 5.62123 54.7628 5.87184 54.7112 6.11715C54.4248 7.48039 53.8173 8.92652 52.8887 10.4555C51.8757 12.1236 50.5872 13.9262 49.0233 15.8634C47.4593 17.8005 46.4818 19.074 46.0909 19.6838C45.771 20.1143 45.611 20.5089 45.611 20.8676C45.611 21.1546 45.7532 21.4774 46.0375 21.8362L53.8217 31.7371C54.2483 32.311 54.4615 32.9388 54.4615 33.6204C54.4615 34.4455 54.1416 35.127 53.5019 35.6651C52.8621 36.2032 52.0979 36.5081 51.2092 36.5799L50.3029 36.6337H42.1988C42.1632 36.6337 42.0921 36.6427 41.9855 36.6606C41.8789 36.6785 41.8078 36.6875 41.7722 36.6875C40.9903 36.6875 40.2616 36.3467 39.5863 35.6651C39.3374 35.3781 37.6669 33.2617 34.5745 29.3156C34.2858 28.9077 33.703 29.1297 33.5924 29.6171C33.4964 30.0407 33.3883 30.5321 33.2683 31.0913C33.0372 32.1675 32.8684 32.9388 32.7617 33.4051L32.6018 34.3199C32.326 35.2942 31.8147 35.9661 31.068 36.3355C30.6214 36.5565 30.113 36.5979 29.6161 36.6337H24.3911C21.4409 36.6337 18.4996 35.2705 15.5672 32.5442C12.6348 29.8179 9.99562 26.2934 7.6497 21.9707C5.30378 17.648 3.1178 12.6169 1.09178 6.87722C0.914056 6.41087 0.825195 5.89072 0.825195 5.31675ZM32.8684 19.2533C32.122 19.2533 31.4466 19.0471 30.8424 18.6345C30.2381 18.222 29.936 17.657 29.936 16.9395V4.56342C29.936 3.84597 29.7583 3.33478 29.4028 3.02986C29.0474 2.72494 28.4253 2.57249 27.5367 2.57249L24.4977 2.6801C22.8891 2.6801 22.9287 4.57542 23.2747 6.14637C23.3436 6.45913 23.3781 6.79243 23.3781 7.14627V16.6167C23.307 17.5135 22.9515 18.2579 22.3117 18.8498C21.6719 19.4417 20.961 19.7376 20.1791 19.7376C19.1127 19.7376 18.2952 19.2175 17.7265 18.1771C14.9541 13.9442 12.8925 9.92641 11.5418 6.12389C11.2543 5.28572 10.469 4.72035 9.58295 4.71363L3.97087 4.67104C3.50879 4.67104 3.25109 4.69795 3.19778 4.75176C3.14446 4.80557 3.1178 4.95803 3.1178 5.20913C3.1178 5.8944 3.34435 6.55424 3.58303 7.1966L4.34408 9.24482C7.3298 17.0292 10.5732 23.1635 14.0743 27.6476C17.5754 32.1317 21.0144 34.3737 24.3911 34.3737H29.7227C29.936 34.3737 30.0959 34.3109 30.2026 34.1854C30.3092 34.0598 30.3981 33.8177 30.4691 33.459L30.5758 32.9209L31.2754 29.6507C31.4838 28.6765 31.634 27.6019 32.3352 26.8942C32.7262 26.4996 33.1883 26.3023 33.7214 26.3023C34.5745 26.3023 35.4453 26.8225 36.334 27.8628L40.8659 33.6742C41.1502 34.1405 41.4523 34.3737 41.7722 34.3737H50.5694C51.6358 34.3737 52.1689 34.1047 52.1689 33.5666C52.1689 33.3872 52.1156 33.2078 52.009 33.0285L44.2781 23.289C43.6739 22.5357 43.3717 21.7286 43.3717 20.8676C43.3717 20.0067 43.6561 19.1816 44.2248 18.3924C44.6869 17.6749 45.5844 16.4822 46.9173 14.8141C48.2502 13.146 49.4143 11.5855 50.4095 10.1327C51.4047 8.67983 52.0623 7.3615 52.3822 6.1777L52.4627 5.8257C52.5141 5.60094 52.4888 5.35897 52.4888 5.12842C52.4888 4.88446 52.2707 4.72485 52.0268 4.72485H44.9329C44.3595 4.72485 43.7524 4.80699 43.302 5.1617C42.908 5.47195 42.7088 5.93784 42.559 6.41645L42.4653 6.71579C41.7043 8.83577 39.8872 11.9426 37.0141 16.0362C36.008 17.4697 34.8836 19.1276 33.1361 19.2445C33.0479 19.2504 32.9587 19.2533 32.8684 19.2533Z" fill="#1C1C27"/>
</svg>
